<?xml version="1.0" encoding="utf-8"?>
<!-- Generator: Adobe Illustrator 15.0.0, SVG Export Plug-In  -->
<!DOCTYPE svg PUBLIC "-//W3C//DTD SVG 1.1//EN" "http://www.w3.org/Graphics/SVG/1.1/DTD/svg11.dtd" [
	<!ENTITY ns_flows "http://ns.adobe.com/Flows/1.0/">
]>
<svg version="1.1"
	 xmlns="http://www.w3.org/2000/svg" xmlns:xlink="http://www.w3.org/1999/xlink" xmlns:a="http://ns.adobe.com/AdobeSVGViewerExtensions/3.0/"
	 x="0px" y="0px" width="242px" height="59px" viewBox="0 0 242 59" overflow="visible" enable-background="new 0 0 242 59"
	 xml:space="preserve">
<defs>
</defs>
<g>
	<g>
		<path fill-rule="evenodd" clip-rule="evenodd" fill="#FFFFFF" d="M72.801,12.395h-4.034v12.85h3.639
			c2.273,0,4.012-0.562,5.216-1.688s1.806-2.745,1.806-4.86c0-1.986-0.58-3.533-1.74-4.641S74.899,12.395,72.801,12.395z
			 M72.661,22.995h-1.169v-8.367h1.45c2.438,0,3.656,1.38,3.656,4.14C76.598,21.585,75.286,22.995,72.661,22.995z M91.075,12.193
			c-1.975,0-3.491,0.564-4.548,1.692s-1.586,2.761-1.586,4.9s0.527,3.779,1.582,4.922s2.566,1.714,4.535,1.714
			s3.48-0.571,4.535-1.714s1.582-2.777,1.582-4.904c0-2.133-0.523-3.768-1.569-4.904S93.049,12.193,91.075,12.193z M91.057,23.135
			c-1.084,0-1.898-0.363-2.443-1.09s-0.817-1.808-0.817-3.243s0.275-2.518,0.826-3.248s1.368-1.094,2.452-1.094
			c2.162,0,3.243,1.447,3.243,4.342C94.318,21.691,93.231,23.135,91.057,23.135z M115.773,25.245l3.27-12.85h-2.681l-1.635,7.014
			c-0.105,0.422-0.223,0.974-0.352,1.657s-0.223,1.252-0.281,1.709c-0.064-0.475-0.158-1.043-0.281-1.705s-0.226-1.154-0.308-1.477
			l-1.872-7.198h-2.575l-1.872,7.198c-0.111,0.387-0.23,0.93-0.356,1.63s-0.207,1.217-0.242,1.551
			c-0.129-0.949-0.337-2.071-0.624-3.366l-1.644-7.014h-2.681l3.278,12.85h3.094l1.731-6.732c0.076-0.299,0.185-0.798,0.325-1.499
			s0.229-1.208,0.264-1.525c0.023,0.258,0.113,0.763,0.268,1.516s0.265,1.25,0.33,1.49l1.74,6.75H115.773z M133.027,18.477
			c0,0.691,0.044,1.872,0.132,3.542h-0.062l-5.581-9.624h-3.437v12.85h2.435v-6.047c0-0.732-0.056-1.957-0.167-3.674h0.079
			l5.59,9.721h3.463v-12.85h-2.452V18.477z M150.07,22.995h-5.212v-10.6h-2.725v12.85h7.937V22.995z M161.286,12.193
			c-1.975,0-3.49,0.564-4.548,1.692s-1.587,2.761-1.587,4.9s0.527,3.779,1.582,4.922s2.566,1.714,4.535,1.714
			s3.48-0.571,4.535-1.714s1.582-2.777,1.582-4.904c0-2.133-0.522-3.768-1.568-4.904S163.26,12.193,161.286,12.193z M161.268,23.135
			c-1.084,0-1.898-0.363-2.443-1.09s-0.817-1.808-0.817-3.243s0.275-2.518,0.826-3.248s1.368-1.094,2.452-1.094
			c2.162,0,3.243,1.447,3.243,4.342C164.529,21.691,163.442,23.135,161.268,23.135z M176.386,12.342l-4.535,12.902h2.936
			l0.932-3.059h4.685l0.932,3.059h2.936l-4.552-12.902H176.386z M176.405,19.901c0.913-2.959,1.468-4.813,1.66-5.563
			c0.047,0.211,0.125,0.498,0.233,0.861s0.593,1.931,1.454,4.702H176.405z M193.342,12.395h-4.034v12.85h3.639
			c2.272,0,4.012-0.562,5.216-1.688s1.807-2.745,1.807-4.86c0-1.986-0.58-3.533-1.74-4.641S195.439,12.395,193.342,12.395z
			 M193.202,22.995h-1.169v-8.367h1.45c2.437,0,3.656,1.38,3.656,4.14C197.139,21.585,195.826,22.995,193.202,22.995z
			 M72.546,34.395h-3.7v12.85h2.101v-4.808h1.336c1.623,0,2.874-0.357,3.753-1.072s1.318-1.743,1.318-3.085
			c0-1.277-0.4-2.244-1.2-2.9S74.152,34.395,72.546,34.395z M74.436,40.108c-0.504,0.375-1.295,0.562-2.373,0.562h-1.116v-4.518
			h1.459c0.955,0,1.658,0.182,2.109,0.545s0.677,0.914,0.677,1.652C75.192,39.147,74.94,39.733,74.436,40.108z M92.028,38.139
			c0-1.254-0.398-2.191-1.195-2.812s-2.024-0.932-3.683-0.932h-3.63v12.85h2.101v-5.133h2.074l3.076,5.133h2.391l-3.63-5.687
			C91.196,40.878,92.028,39.739,92.028,38.139z M87.08,40.372h-1.459V36.17h1.389c0.955,0,1.67,0.158,2.145,0.475
			s0.712,0.838,0.712,1.564c0,0.715-0.22,1.254-0.659,1.617S88.059,40.372,87.08,40.372z M98.625,47.245h7.269V45.46h-5.168v-4.034
			h4.843v-1.758h-4.843V36.17h5.168v-1.775h-7.269V47.245z M118.406,41.092c-0.439-0.34-1.131-0.706-2.074-1.099
			c-0.838-0.346-1.418-0.624-1.74-0.835s-0.554-0.436-0.694-0.672c-0.141-0.237-0.211-0.523-0.211-0.857
			c0-0.486,0.176-0.877,0.527-1.174c0.352-0.295,0.867-0.443,1.547-0.443c0.896,0,1.916,0.24,3.059,0.721l0.668-1.714
			c-1.219-0.539-2.443-0.809-3.674-0.809c-1.283,0-2.306,0.308-3.067,0.923s-1.143,1.459-1.143,2.531
			c0,0.855,0.24,1.588,0.721,2.197s1.307,1.151,2.479,1.626c1.137,0.457,1.887,0.853,2.25,1.187s0.545,0.741,0.545,1.222
			c0,0.533-0.198,0.958-0.593,1.274s-1.009,0.475-1.841,0.475c-0.568,0-1.182-0.079-1.841-0.237s-1.282-0.375-1.868-0.65v1.986
			c0.926,0.451,2.115,0.677,3.568,0.677s2.593-0.325,3.419-0.976s1.239-1.547,1.239-2.689c0-0.58-0.103-1.084-0.308-1.512
			S118.845,41.432,118.406,41.092z M125.768,47.245h7.269V45.46h-5.168v-4.034h4.843v-1.758h-4.843V36.17h5.168v-1.775h-7.269
			V47.245z M148.194,41.127c0,0.475,0.018,1.136,0.053,1.981c0.035,0.848,0.059,1.338,0.07,1.473h-0.053l-6.302-10.187h-2.549v12.85
			h1.907v-6.68c0-0.902-0.041-1.898-0.123-2.988l-0.044-0.571h0.07l6.319,10.239h2.575v-12.85h-1.925V41.127z M155.669,36.197h3.779
			v11.048h2.101V36.197h3.779v-1.802h-9.659V36.197z M174.009,34.342l-4.808,12.902h2.215l1.257-3.568h4.913l1.283,3.568h2.232
			l-4.808-12.902H174.009z M173.289,41.866l1.16-3.349c0.305-0.855,0.536-1.644,0.694-2.364c0.059,0.234,0.165,0.604,0.32,1.107
			s0.277,0.873,0.365,1.107l1.204,3.498H173.289z M184.957,36.197h3.779v11.048h2.101V36.197h3.779v-1.802h-9.659V36.197z
			 M200.185,47.245h2.101v-12.85h-2.101V47.245z M214.692,34.193c-1.939,0-3.432,0.568-4.478,1.705s-1.569,2.766-1.569,4.887
			s0.52,3.758,1.561,4.908c1.039,1.152,2.529,1.728,4.469,1.728c1.916,0,3.397-0.58,4.443-1.74s1.568-2.786,1.568-4.878
			c0-2.098-0.521-3.724-1.564-4.878S216.602,34.193,214.692,34.193z M217.5,44.415c-0.637,0.809-1.578,1.213-2.826,1.213
			c-1.254,0-2.2-0.409-2.839-1.227c-0.639-0.816-0.958-2.017-0.958-3.599c0-1.576,0.32-2.771,0.962-3.586s1.593-1.222,2.853-1.222
			c1.248,0,2.187,0.407,2.817,1.222c0.629,0.814,0.944,2.01,0.944,3.586C218.454,42.402,218.135,43.606,217.5,44.415z
			 M235.826,34.395v6.732c0,0.475,0.018,1.136,0.053,1.981c0.035,0.848,0.059,1.338,0.07,1.473h-0.053l-6.302-10.187h-2.549v12.85
			h1.907v-6.68c0-0.902-0.041-1.898-0.123-2.988l-0.044-0.571h0.07l6.319,10.239h2.575v-12.85H235.826z"/>
	</g>
</g>
<path fill-rule="evenodd" clip-rule="evenodd" fill="#FFFFFF" d="M46.551,53.712H5.85v-6.51H0l0.054,6.51
	c0,0,0.557,2.258,2.04,3.614c1.413,1.291,3.756,1.685,3.756,1.685h40.701c0,0,2.294-0.31,3.87-1.664
	c1.504-1.293,2.295-3.635,2.295-3.635v-6.51h-6.165V53.712z"/>
<path fill-rule="evenodd" clip-rule="evenodd" fill="#FFFFFF" d="M26.451,47.203L5.838,24.152l9.763-0.106
	c0,0,1.225-0.301,2.013-1.107c0.792-0.811,1.146-2.128,1.146-2.128V3.51c0,0,0.653-1.753,1.276-2.604
	c0.514-0.704,1.106-0.884,1.106-0.884L31.876,0c0,0,0.943,0.745,1.206,1.272c0.515,1.035,0.534,2.222,0.534,2.222l0.035,17.302
	c0,0,0.142,1.449,0.858,2.252c0.75,0.842,2.077,1.041,2.077,1.041l10.404-0.021L26.451,47.203z"/>
</svg>
